<svg xml:space="preserve" viewBox="30.4078 385.87 237.992 225.992" version="1.1" xmlns:xlink="http://www.w3.org/1999/xlink" xmlns="http://www.w3.org/2000/svg" style="max-height: 500px" width="237.992" height="225.992">
<desc>Created with Fabric.js 3.5.0</desc>
<defs>
</defs>
<rect fill="#ffffff" height="100%" width="100%" y="0" x="0"/>
<g id="Layer_1" transform="matrix(1.3371 0 0 1.3187 82.0226 500)">
<path stroke-linecap="round" d="M 0 2.1 v 155.3 h 64.2 V 79.8 V 2.1 L 0 2.1 L 0 2.1 z" transform="translate(-32.1, -79.75)" style="stroke: none; stroke-width: 1; stroke-dasharray: none; stroke-linecap: butt; stroke-dashoffset: 0; stroke-linejoin: miter; stroke-miterlimit: 4; is-custom-font: none; font-file-url: none; fill: rgb(0,176,151); fill-rule: nonzero; opacity: 1;"/>
</g>
<g id="Layer_1" transform="matrix(1.3371 0 0 1.3187 192.935 500.0659)">
<path stroke-linecap="round" d="M 140.2 79.8 l 18.7 -27.9 c 4.7 -7 7 -13.3 7 -21.2 c 0 -16.3 -13.1 -30.6 -31.7 -30.6 c -12.9 0 -22.2 6.1 -30.2 18.5 L 64.2 79.8 L 104 141 c 8 12.4 17.3 18.5 30.2 18.5 c 18.6 0 31.7 -14.3 31.7 -30.6 c 0 -7.9 -2.3 -14.2 -7 -21.2 L 140.2 79.8 z" transform="translate(-115.05, -79.8)" style="stroke: none; stroke-width: 1; stroke-dasharray: none; stroke-linecap: butt; stroke-dashoffset: 0; stroke-linejoin: miter; stroke-miterlimit: 4; is-custom-font: none; font-file-url: none; fill: rgb(0,176,151); fill-rule: nonzero; opacity: 1;"/>
</g>
</svg>